<?xml version="1.0" standalone="no"?>
<!DOCTYPE svg PUBLIC "-//W3C//DTD SVG 20010904//EN"
 "http://www.w3.org/TR/2001/REC-SVG-20010904/DTD/svg10.dtd">
<svg version="1.0" xmlns="http://www.w3.org/2000/svg"
 width="730.000000pt" height="1280.000000pt" viewBox="0 0 730.000000 1280.000000"
 preserveAspectRatio="xMidYMid meet">
<metadata>
Created by potrace 1.15, written by Peter Selinger 2001-2017
</metadata>
<g transform="translate(0.000000,1280.000000) scale(0.100000,-0.100000)"
fill="#000000" stroke="none">
<path d="M3354 12790 c-873 -52 -1609 -282 -2186 -685 -322 -225 -638 -552
-807 -840 -187 -316 -294 -635 -343 -1025 -19 -152 -16 -547 5 -678 61 -380
199 -676 426 -915 257 -270 580 -407 959 -407 397 0 725 136 980 404 262 277
375 650 316 1043 -54 368 -253 639 -674 920 -132 88 -148 96 -386 194 -212 86
-265 113 -306 156 -38 40 -48 72 -37 126 23 125 153 270 384 426 252 171 478
270 754 328 117 25 144 27 371 28 197 0 264 -4 344 -18 265 -50 495 -152 685
-303 284 -228 499 -565 616 -969 75 -259 100 -464 100 -835 0 -265 -3 -325
-23 -456 -63 -425 -176 -812 -374 -1274 -79 -186 -265 -563 -371 -750 -234
-417 -430 -793 -512 -985 -160 -373 -245 -777 -276 -1305 -11 -198 -8 -647 6
-681 8 -21 141 -29 468 -29 l237 0 0 113 c0 242 28 571 66 772 88 463 282 798
659 1133 169 151 289 238 695 508 395 263 553 374 764 539 707 549 1085 1058
1289 1735 140 462 153 1016 37 1505 -60 255 -170 525 -302 743 -201 333 -573
700 -941 929 -408 252 -908 427 -1452 508 -301 44 -840 65 -1171 45z"/>
<path d="M3205 2950 c-339 -28 -646 -171 -889 -414 -318 -317 -459 -673 -443
-1116 7 -183 31 -308 88 -460 137 -364 467 -704 831 -854 306 -127 701 -139
1025 -31 317 106 601 332 786 627 260 415 285 996 62 1440 -198 392 -568 685
-986 778 -75 17 -324 43 -369 39 -8 -1 -56 -5 -105 -9z"/>
</g>
</svg>
